<svg width="111" height="38" viewBox="0 0 111 38" fill="none" xmlns="http://www.w3.org/2000/svg">
<path d="M40.5156 11.3906C40.4688 11.6094 40.3672 11.7812 40.2109 11.9062C40.0547 12.0312 39.8828 12.0938 39.6953 12.0938C39.4141 12.0938 39.1875 12.0078 39.0156 11.8359C38.8438 11.6484 38.7578 11.4375 38.7578 11.2031C38.7578 10.9688 38.7812 10.7422 38.8281 10.5234C38.875 10.2891 38.8984 10.0625 38.8984 9.84375C38.8984 8.70312 38.5469 7.67969 37.8438 6.77344C37.1406 5.86719 36.1406 5.10938 34.8438 4.5C33.5625 3.875 32 3.39844 30.1562 3.07031C28.3125 2.74219 26.2578 2.57812 23.9922 2.57812C22.2578 2.57812 20.5078 2.69531 18.7422 2.92969C16.9922 3.14844 15.3047 3.47656 13.6797 3.91406C12.0703 4.33594 10.5625 4.875 9.15625 5.53125C7.75 6.17187 6.52344 6.92187 5.47656 7.78125C4.44531 8.625 3.63281 9.57031 3.03906 10.6172C2.44531 11.6484 2.14844 12.7812 2.14844 14.0156C2.14844 14.9688 2.35156 15.8125 2.75781 16.5469C3.17969 17.2656 3.75 17.8984 4.46875 18.4453C5.1875 18.9766 6.03125 19.4375 7 19.8281C7.98438 20.2031 9.04688 20.5234 10.1875 20.7891C11.3281 21.0391 12.5156 21.25 13.75 21.4219C14.9844 21.5781 16.2266 21.7109 17.4766 21.8203L21.0859 22.125C22.8828 22.2812 24.4922 22.4453 25.9141 22.6172C27.3359 22.7891 28.5859 23.0078 29.6641 23.2734C31.4609 23.7266 32.7891 24.375 33.6484 25.2188C34.5078 26.0625 34.9375 27.1875 34.9375 28.5938C34.9375 29.9531 34.5625 31.1484 33.8125 32.1797C33.0625 33.2109 32.0391 34.0781 30.7422 34.7812C29.4453 35.4844 27.9297 36.0156 26.1953 36.375C24.4609 36.7344 22.6016 36.9141 20.6172 36.9141C18.4609 36.9141 16.5625 36.7656 14.9219 36.4688C13.2969 36.1875 11.9297 35.875 10.8203 35.5312C9.72656 35.1719 8.89062 34.8438 8.3125 34.5469C7.73438 34.25 7.42188 34.0859 7.375 34.0547C7.09375 33.8984 6.95312 33.6484 6.95312 33.3047C6.95312 33.0391 7.04688 32.8281 7.23438 32.6719C7.42188 32.5 7.625 32.4141 7.84375 32.4141C8.01562 32.4141 8.17188 32.4609 8.3125 32.5547C8.32812 32.5547 8.59375 32.6953 9.10938 32.9766C9.64062 33.2422 10.4219 33.5391 11.4531 33.8672C12.5 34.1953 13.7891 34.4922 15.3203 34.7578C16.8516 35.0234 18.6328 35.1562 20.6641 35.1562C22.6797 35.1562 24.4609 34.9922 26.0078 34.6641C27.5547 34.3359 28.8516 33.8828 29.8984 33.3047C30.9609 32.7109 31.7578 32.0234 32.2891 31.2422C32.8359 30.4453 33.1094 29.5859 33.1094 28.6641C33.1094 28.1172 33.0078 27.6484 32.8047 27.2578C32.6172 26.8516 32.3516 26.5078 32.0078 26.2266C31.6641 25.9297 31.25 25.6797 30.7656 25.4766C30.2969 25.2734 29.7812 25.1016 29.2188 24.9609C28.625 24.8047 27.9844 24.6719 27.2969 24.5625C26.625 24.4531 25.9297 24.3594 25.2109 24.2812C24.4922 24.2031 23.7656 24.1328 23.0312 24.0703C22.3125 24.0078 21.6016 23.9453 20.8984 23.8828L17.2891 23.5781C14.4453 23.3438 11.9609 22.9844 9.83594 22.5C7.72656 22 5.96875 21.3672 4.5625 20.6016C3.15625 19.8203 2.10156 18.8906 1.39844 17.8125C0.695312 16.7344 0.34375 15.4766 0.34375 14.0391C0.34375 12.5703 0.671875 11.2266 1.32812 10.0078C2 8.77344 2.90625 7.66406 4.04688 6.67969C5.20312 5.69531 6.54688 4.84375 8.07812 4.125C9.625 3.39063 11.2734 2.78125 13.0234 2.29688C14.7734 1.8125 16.5859 1.45312 18.4609 1.21875C20.3359 0.96875 22.1797 0.84375 23.9922 0.84375C26.2578 0.84375 28.2266 0.984375 29.8984 1.26562C31.5859 1.53125 33.0234 1.88281 34.2109 2.32031C35.4141 2.74219 36.3984 3.22656 37.1641 3.77344C37.9297 4.32031 38.5469 4.85937 39.0156 5.39062C40.125 6.6875 40.6797 8.16406 40.6797 9.82031C40.6797 10.3672 40.625 10.8906 40.5156 11.3906ZM54.7422 29.4844C54.6953 30.2969 54.5859 31.1172 54.4141 31.9453C54.2422 32.7578 53.9688 33.4922 53.5938 34.1484C53.2344 34.8047 52.7578 35.3438 52.1641 35.7656C51.5703 36.1719 50.8359 36.375 49.9609 36.375C49.4141 36.375 48.9297 36.2891 48.5078 36.1172C48.1016 35.9609 47.7422 35.75 47.4297 35.4844C47.1328 35.2031 46.8828 34.8906 46.6797 34.5469C46.4766 34.1875 46.3047 33.8125 46.1641 33.4219C45.6172 34.3281 44.9688 35.0312 44.2188 35.5312C43.4844 36.0156 42.75 36.2578 42.0156 36.2578C41.4219 36.2578 40.8828 36.1484 40.3984 35.9297C39.9297 35.7109 39.5234 35.4062 39.1797 35.0156C38.8516 34.6094 38.5938 34.125 38.4062 33.5625C38.2188 33 38.125 32.3672 38.125 31.6641C38.125 30.4922 38.2266 29.4844 38.4297 28.6406C38.6484 27.7812 38.8828 27.0781 39.1328 26.5312C39.3984 25.9844 39.6406 25.5781 39.8594 25.3125C40.0781 25.0312 40.1875 24.8906 40.1875 24.8906C40.2656 24.7969 40.3594 24.7266 40.4688 24.6797C40.5938 24.6328 40.7188 24.6094 40.8438 24.6094C41.0938 24.6094 41.2969 24.7031 41.4531 24.8906C41.625 25.0625 41.7109 25.2656 41.7109 25.5C41.7109 25.6719 41.6484 25.8594 41.5234 26.0625C41.4609 26.1562 41.3359 26.3359 41.1484 26.6016C40.9766 26.8672 40.7969 27.2266 40.6094 27.6797C40.4219 28.1328 40.25 28.6875 40.0938 29.3438C39.9531 30 39.8828 30.7734 39.8828 31.6641C39.8828 32.5859 40.0703 33.2891 40.4453 33.7734C40.8203 34.2422 41.3438 34.4766 42.0156 34.4766C42.3438 34.4766 42.7031 34.3906 43.0938 34.2188C43.4844 34.0312 43.8516 33.75 44.1953 33.375C44.5391 33 44.8359 32.5234 45.0859 31.9453C45.3359 31.3672 45.4922 30.6875 45.5547 29.9062L45.8594 25.875C45.875 25.6406 45.9688 25.4453 46.1406 25.2891C46.3281 25.1328 46.5391 25.0547 46.7734 25.0547C47.0391 25.0547 47.25 25.1562 47.4062 25.3594C47.5625 25.5469 47.6406 25.7656 47.6406 26.0156L47.3828 29.8828C47.3359 30.7109 47.3594 31.4219 47.4531 32.0156C47.5625 32.6094 47.7344 33.1016 47.9688 33.4922C48.2031 33.8672 48.4922 34.1484 48.8359 34.3359C49.1797 34.5078 49.5625 34.5938 49.9844 34.5938C50.5469 34.5938 51.0234 34.4297 51.4141 34.1016C51.8047 33.7734 52.1172 33.3281 52.3516 32.7656C52.5859 32.2031 52.75 31.5547 52.8438 30.8203C52.9531 30.0703 53.0078 29.2812 53.0078 28.4531C53.0078 27.4688 52.9531 26.6484 52.8438 25.9922C52.7344 25.3359 52.6797 24.8984 52.6797 24.6797C52.6797 24.4453 52.7656 24.2422 52.9375 24.0703C53.1094 23.8828 53.3203 23.7891 53.5703 23.7891C53.7891 23.7891 53.9766 23.8594 54.1328 24C54.2891 24.125 54.3906 24.2969 54.4375 24.5156C54.4531 24.5781 54.5 24.7578 54.5781 25.0547C54.6562 25.3516 54.7656 25.7109 54.9062 26.1328C55.0469 26.5391 55.2266 26.9766 55.4453 27.4453C55.6797 27.8984 55.9531 28.3203 56.2656 28.7109C56.5938 29.1016 56.9609 29.4297 57.3672 29.6953C57.7891 29.9453 58.2656 30.0703 58.7969 30.0703C59.0938 30.0703 59.3438 30.0156 59.5469 29.9062C59.7656 29.7812 59.9453 29.6406 60.0859 29.4844C60.2266 29.3281 60.3281 29.1797 60.3906 29.0391C60.4688 28.8984 60.5156 28.8125 60.5312 28.7812C60.6094 28.6094 60.7188 28.4766 60.8594 28.3828C61.0156 28.2734 61.1797 28.2188 61.3516 28.2188C61.6172 28.2188 61.8281 28.3203 61.9844 28.5234C62.1562 28.7109 62.2422 28.9141 62.2422 29.1328C62.2422 29.3203 62.1562 29.5703 61.9844 29.8828C61.8281 30.1953 61.6016 30.5 61.3047 30.7969C61.0078 31.0781 60.6406 31.3281 60.2031 31.5469C59.7812 31.75 59.3125 31.8516 58.7969 31.8516C58.3438 31.8516 57.9219 31.7891 57.5312 31.6641C57.1406 31.5234 56.7734 31.3438 56.4297 31.125C56.1016 30.9062 55.7969 30.6562 55.5156 30.375C55.2344 30.0938 54.9766 29.7969 54.7422 29.4844ZM63.3906 33.4219C63.7188 33.875 64.1406 34.2422 64.6562 34.5234C65.1719 34.7891 65.8047 34.9219 66.5547 34.9219C67.3203 34.9219 68.0156 34.7422 68.6406 34.3828C69.2656 34.0078 69.8359 33.5234 70.3516 32.9297C70.8672 32.3359 71.3281 31.6719 71.7344 30.9375C72.1406 30.2031 72.5078 29.4688 72.8359 28.7344C72.9141 28.5625 73.0234 28.4375 73.1641 28.3594C73.3047 28.2656 73.4609 28.2188 73.6328 28.2188C73.8984 28.2188 74.1094 28.3125 74.2656 28.5C74.4375 28.6875 74.5234 28.8906 74.5234 29.1094C74.5234 29.1875 74.5156 29.2578 74.5 29.3203C74.4844 29.3672 74.4609 29.4219 74.4297 29.4844C73.3516 31.8594 72.1719 33.6484 70.8906 34.8516C69.625 36.0547 68.1875 36.6719 66.5781 36.7031C65.5469 36.7031 64.6562 36.5 63.9062 36.0938C63.1562 35.7031 62.5391 35.1953 62.0547 34.5703C61.5703 33.9297 61.2109 33.2109 60.9766 32.4141C60.7422 31.6172 60.625 30.8203 60.625 30.0234C60.625 29.2266 60.7188 28.4922 60.9062 27.8203C61.1094 27.1484 61.3906 26.5625 61.75 26.0625C62.125 25.5625 62.5625 25.1719 63.0625 24.8906C63.5781 24.6094 64.1406 24.4688 64.75 24.4688C65.1094 24.4688 65.4609 24.5469 65.8047 24.7031C66.1641 24.8438 66.4844 25.0547 66.7656 25.3359C67.0469 25.6016 67.2734 25.9297 67.4453 26.3203C67.6172 26.7109 67.7031 27.1562 67.7031 27.6562C67.7031 28.2969 67.5938 28.8984 67.375 29.4609C67.1562 30.0234 66.8516 30.5469 66.4609 31.0312C66.0859 31.5156 65.6328 31.9609 65.1016 32.3672C64.5703 32.7734 64 33.125 63.3906 33.4219ZM62.6875 31.8984C63.1719 31.6953 63.6094 31.4375 64 31.125C64.4062 30.8125 64.75 30.4688 65.0312 30.0938C65.3125 29.7188 65.5312 29.3281 65.6875 28.9219C65.8438 28.5 65.9219 28.0781 65.9219 27.6562C65.9219 27.1875 65.8047 26.8359 65.5703 26.6016C65.3359 26.3516 65.0625 26.2266 64.75 26.2266C64.3281 26.2266 63.9688 26.3438 63.6719 26.5781C63.375 26.8125 63.1328 27.1172 62.9453 27.4922C62.7578 27.8672 62.6172 28.2891 62.5234 28.7578C62.4453 29.2109 62.4062 29.6641 62.4062 30.1172C62.4062 30.3984 62.4297 30.6953 62.4766 31.0078C62.5391 31.3203 62.6094 31.6172 62.6875 31.8984ZM75.6719 33.4219C76 33.875 76.4219 34.2422 76.9375 34.5234C77.4531 34.7891 78.0859 34.9219 78.8359 34.9219C79.6016 34.9219 80.2969 34.7422 80.9219 34.3828C81.5469 34.0078 82.1172 33.5234 82.6328 32.9297C83.1484 32.3359 83.6094 31.6719 84.0156 30.9375C84.4219 30.2031 84.7891 29.4688 85.1172 28.7344C85.1953 28.5625 85.3047 28.4375 85.4453 28.3594C85.5859 28.2656 85.7422 28.2188 85.9141 28.2188C86.1797 28.2188 86.3906 28.3125 86.5469 28.5C86.7188 28.6875 86.8047 28.8906 86.8047 29.1094C86.8047 29.1875 86.7969 29.2578 86.7812 29.3203C86.7656 29.3672 86.7422 29.4219 86.7109 29.4844C85.6328 31.8594 84.4531 33.6484 83.1719 34.8516C81.9062 36.0547 80.4688 36.6719 78.8594 36.7031C77.8281 36.7031 76.9375 36.5 76.1875 36.0938C75.4375 35.7031 74.8203 35.1953 74.3359 34.5703C73.8516 33.9297 73.4922 33.2109 73.2578 32.4141C73.0234 31.6172 72.9062 30.8203 72.9062 30.0234C72.9062 29.2266 73 28.4922 73.1875 27.8203C73.3906 27.1484 73.6719 26.5625 74.0312 26.0625C74.4062 25.5625 74.8438 25.1719 75.3438 24.8906C75.8594 24.6094 76.4219 24.4688 77.0312 24.4688C77.3906 24.4688 77.7422 24.5469 78.0859 24.7031C78.4453 24.8438 78.7656 25.0547 79.0469 25.3359C79.3281 25.6016 79.5547 25.9297 79.7266 26.3203C79.8984 26.7109 79.9844 27.1562 79.9844 27.6562C79.9844 28.2969 79.875 28.8984 79.6562 29.4609C79.4375 30.0234 79.1328 30.5469 78.7422 31.0312C78.3672 31.5156 77.9141 31.9609 77.3828 32.3672C76.8516 32.7734 76.2812 33.125 75.6719 33.4219ZM74.9688 31.8984C75.4531 31.6953 75.8906 31.4375 76.2812 31.125C76.6875 30.8125 77.0312 30.4688 77.3125 30.0938C77.5938 29.7188 77.8125 29.3281 77.9688 28.9219C78.125 28.5 78.2031 28.0781 78.2031 27.6562C78.2031 27.1875 78.0859 26.8359 77.8516 26.6016C77.6172 26.3516 77.3438 26.2266 77.0312 26.2266C76.6094 26.2266 76.25 26.3438 75.9531 26.5781C75.6562 26.8125 75.4141 27.1172 75.2266 27.4922C75.0391 27.8672 74.8984 28.2891 74.8047 28.7578C74.7266 29.2109 74.6875 29.6641 74.6875 30.1172C74.6875 30.3984 74.7109 30.6953 74.7578 31.0078C74.8203 31.3203 74.8906 31.6172 74.9688 31.8984ZM104.125 12.5391C104.125 12.7891 104.039 12.9922 103.867 13.1484C103.695 13.2891 103.484 13.3594 103.234 13.3594H91.3516V13.6172C91.3516 14.5703 91.2812 15.5859 91.1406 16.6641C91 17.7422 90.8047 18.8203 90.5547 19.8984C90.3203 20.9609 90.0469 22 89.7344 23.0156C89.4375 24.0312 89.125 24.9688 88.7969 25.8281C88.4844 26.6875 88.1719 27.4375 87.8594 28.0781C87.5469 28.7031 87.2656 29.1719 87.0156 29.4844C87.2188 30.2031 87.4609 30.875 87.7422 31.5C88.0234 32.1094 88.3359 32.6484 88.6797 33.1172C89.0391 33.5703 89.4219 33.9297 89.8281 34.1953C90.2344 34.4609 90.6719 34.5938 91.1406 34.5938C91.6875 34.5938 92.2266 34.3672 92.7578 33.9141C93.3047 33.4453 93.8047 32.8984 94.2578 32.2734C94.7266 31.6328 95.1328 30.9922 95.4766 30.3516C95.8359 29.6953 96.0938 29.1719 96.25 28.7812C96.4062 28.4062 96.6797 28.2188 97.0703 28.2188C97.3359 28.2188 97.5469 28.3125 97.7031 28.5C97.875 28.6875 97.9609 28.8906 97.9609 29.1094C97.9609 29.2188 97.9375 29.3281 97.8906 29.4375C97.8438 29.5469 97.7266 29.7969 97.5391 30.1875C97.3672 30.5781 97.1328 31.0312 96.8359 31.5469C96.5547 32.0625 96.2188 32.6094 95.8281 33.1875C95.4531 33.75 95.0234 34.2656 94.5391 34.7344C94.0703 35.2031 93.5625 35.5938 93.0156 35.9062C92.4688 36.2188 91.8906 36.375 91.2812 36.375C90.2031 36.375 89.2344 36.0234 88.375 35.3203C87.5156 34.6172 86.7812 33.6328 86.1719 32.3672C85.5781 31.1016 85.125 29.6016 84.8125 27.8672C84.5 26.1328 84.3438 24.2344 84.3438 22.1719C84.3438 21.6562 84.3516 21.0547 84.3672 20.3672C84.3828 19.6641 84.4141 18.9297 84.4609 18.1641C84.5078 17.3828 84.5781 16.5859 84.6719 15.7734C84.7656 14.9453 84.8906 14.1406 85.0469 13.3594H76.6328C76.3828 13.3594 76.1719 13.2891 76 13.1484C75.8281 12.9922 75.7422 12.7891 75.7422 12.5391C75.7422 12.2891 75.8281 12.0938 76 11.9531C76.1719 11.7969 76.3828 11.7188 76.6328 11.7188H85.4453C85.6016 11.1562 85.7812 10.6406 85.9844 10.1719C86.2031 9.70312 86.4453 9.29688 86.7109 8.95312C86.9922 8.60938 87.2969 8.34375 87.625 8.15625C87.9688 7.95312 88.3438 7.85156 88.75 7.85156C89.1406 7.85156 89.4766 7.95312 89.7578 8.15625C90.0547 8.34375 90.3047 8.60938 90.5078 8.95312C90.7109 9.29688 90.8672 9.70312 90.9766 10.1719C91.1016 10.6406 91.1953 11.1562 91.2578 11.7188H103.234C103.484 11.7188 103.695 11.7969 103.867 11.9531C104.039 12.0938 104.125 12.2891 104.125 12.5391ZM86.4766 27.1406C86.9453 26.1094 87.3672 25 87.7422 23.8125C88.1328 22.6094 88.4609 21.3984 88.7266 20.1797C89.0078 18.9609 89.2188 17.7656 89.3594 16.5938C89.5156 15.4219 89.5938 14.3438 89.5938 13.3594H86.8281C86.6094 14.3281 86.4297 15.5312 86.2891 16.9688C86.1641 18.3906 86.1016 20.125 86.1016 22.1719C86.1016 23.3125 86.1328 24.2734 86.1953 25.0547C86.2578 25.8203 86.3516 26.5156 86.4766 27.1406ZM88.6562 9.60938C88.5156 9.60938 88.3125 9.76562 88.0469 10.0781C87.7812 10.375 87.5156 10.9219 87.25 11.7188H89.5C89.4219 11.0625 89.3047 10.5469 89.1484 10.1719C89.0078 9.79688 88.8438 9.60938 88.6562 9.60938ZM86.8516 28.8281V28.8516V28.8281ZM98.9453 27.3281C98.8516 27.5781 98.7344 27.8594 98.5938 28.1719C98.4688 28.4844 98.3203 28.8125 98.1484 29.1562C98.0078 29.4219 97.8594 29.6328 97.7031 29.7891C97.5625 29.9297 97.375 30 97.1406 30C96.875 30 96.6641 29.9219 96.5078 29.7656C96.3516 29.5938 96.2734 29.3984 96.2734 29.1797C96.2734 29.1016 96.2812 29.0391 96.2969 28.9922C96.3125 28.9297 96.3516 28.8359 96.4141 28.7109C96.8203 27.9297 97.1172 27.25 97.3047 26.6719C97.5078 26.0781 97.6719 25.4609 97.7969 24.8203C97.6875 24.4609 97.6094 24.1562 97.5625 23.9062C97.5156 23.6562 97.4922 23.3984 97.4922 23.1328C97.4922 22.6172 97.6016 22.2031 97.8203 21.8906C98.0391 21.5625 98.3438 21.3984 98.7344 21.3984C99.0938 21.3984 99.375 21.5547 99.5781 21.8672C99.7969 22.1797 99.9062 22.5625 99.9062 23.0156C99.9062 23.2656 99.8828 23.5156 99.8359 23.7656C99.7891 24.0156 99.7266 24.3281 99.6484 24.7031C100.008 25.5938 100.367 26.3828 100.727 27.0703C101.086 27.7578 101.406 28.3906 101.688 28.9688C101.969 29.5312 102.195 30.0625 102.367 30.5625C102.555 31.0625 102.648 31.5625 102.648 32.0625C102.648 32.7188 102.516 33.3438 102.25 33.9375C101.984 34.5312 101.547 35.0312 100.938 35.4375C101.016 35.4531 101.094 35.4609 101.172 35.4609C101.25 35.4609 101.328 35.4609 101.406 35.4609C102.297 35.4609 103.117 35.2578 103.867 34.8516C104.617 34.4453 105.289 33.9219 105.883 33.2812C106.492 32.625 107.031 31.9062 107.5 31.125C107.969 30.3281 108.375 29.5391 108.719 28.7578C108.875 28.3984 109.094 28.2188 109.375 28.2188C109.641 28.2188 109.844 28.3125 109.984 28.5C110.141 28.6875 110.219 28.8906 110.219 29.1094C110.219 29.2344 110.195 29.3516 110.148 29.4609C109.977 29.8828 109.75 30.3672 109.469 30.9141C109.203 31.4453 108.875 32 108.484 32.5781C108.109 33.1406 107.672 33.6953 107.172 34.2422C106.672 34.7891 106.109 35.2812 105.484 35.7188C104.875 36.1406 104.203 36.4766 103.469 36.7266C102.734 36.9922 101.93 37.125 101.055 37.125C100.008 37.125 99.0312 36.9375 98.125 36.5625C97.2344 36.2031 96.5078 35.6016 95.9453 34.7578C95.8516 34.6172 95.8047 34.4688 95.8047 34.3125C95.8047 34.0781 95.8906 33.875 96.0625 33.7031C96.25 33.5156 96.4609 33.4219 96.6953 33.4219C96.9453 33.4219 97.1562 33.5078 97.3281 33.6797C97.3438 33.7109 97.3984 33.7656 97.4922 33.8438C97.5859 33.9062 97.6953 33.9844 97.8203 34.0781C97.9609 34.1562 98.1172 34.2266 98.2891 34.2891C98.4766 34.3516 98.6641 34.3828 98.8516 34.3828C99.2266 34.3828 99.5391 34.3047 99.7891 34.1484C100.055 33.9922 100.266 33.8047 100.422 33.5859C100.578 33.3516 100.688 33.1094 100.75 32.8594C100.828 32.5938 100.867 32.3672 100.867 32.1797C100.867 31.7891 100.805 31.3984 100.68 31.0078C100.555 30.6172 100.391 30.2266 100.188 29.8359C100 29.4453 99.7891 29.0469 99.5547 28.6406C99.3359 28.2188 99.1328 27.7812 98.9453 27.3281Z" fill="#F2C0CC"/>
</svg>
